<?xml version="1.0" encoding="iso-8859-1"?>
<!-- Generator: Adobe Illustrator 21.0.0, SVG Export Plug-In . SVG Version: 6.00 Build 0)  -->
<svg xmlns="http://www.w3.org/2000/svg" xmlns:xlink="http://www.w3.org/1999/xlink" version="1.1" id="Capa_1" x="0px" y="0px" viewBox="0 0 512.92 512.92" style="enable-background:new 0 0 512.92 512.92;" xml:space="preserve" width="512" height="512" fill="#37287b">
<g id="XMLID_479_">
	<path id="XMLID_481_" d="M257.506,390.573c-7.249,0-13.146-5.897-13.146-13.146h-30c0,23.791,19.355,43.146,43.146,43.146   c23.79,0,43.146-19.355,43.146-43.146h-30C270.651,384.676,264.754,390.573,257.506,390.573z"/>
	<path id="XMLID_482_" d="M322.302,237.328c-24.24,0.664-43.962,21.225-43.962,45.833v21.105c0,5.605-4.56,10.165-10.164,10.165   h-10.67v30h10.67c22.146,0,40.164-18.018,40.164-40.165v-21.105c0-8.513,6.632-15.621,14.784-15.844   c4.168-0.108,8.082,1.416,11.051,4.304c2.972,2.892,4.608,6.767,4.608,10.912h30c0-12.314-4.861-23.825-13.688-32.414   C346.27,241.532,334.609,236.991,322.302,237.328z"/>
	<path id="XMLID_483_" d="M191.203,237.311c-24.8,0-44.976,20.176-44.976,44.976h30c0-8.258,6.718-14.976,14.976-14.976   s14.977,6.718,14.977,14.976h30C236.18,257.487,216.003,237.311,191.203,237.311z"/>
	<path id="XMLID_1260_" d="M425.565,242.32v-6.931c0-93.245-75.86-169.105-169.105-169.105c-18.15,0-33.811,1.382-50.96,7.247   c-17.108-38.197-55.282-65.833-57.355-67.312L139.431,0l-8.714,6.22c-2.676,1.91-65.533,47.411-65.533,102.957   c0,32.367,9.022,65.925,26.281,88.059c-3.367,13.25-4.11,24.468-4.11,38.155v6.931c-27.168,3.69-48.172,27.04-48.172,55.203   c0,28.244,21.125,51.646,48.405,55.234c4.665,89.105,78.626,160.163,168.872,160.163s164.207-71.058,168.872-160.163   c27.28-3.587,48.405-26.99,48.405-55.234C473.737,269.359,452.733,246.01,425.565,242.32z M139.449,37.524   c17.367,14.792,44.229,43.637,44.229,71.652c0,22.222-5.029,44.155-13.799,60.176c-3.547,6.48-8.663,13.715-15.449,18.365v-84.796   h-30v84.795c-6.786-4.65-11.902-11.885-15.448-18.364c-8.77-16.021-13.799-37.954-13.799-60.176   C95.184,81.289,122.088,52.361,139.449,37.524z M418.026,323.234h-22.461v20.581c0,76.703-62.402,139.105-139.105,139.105   s-139.105-62.402-139.105-139.105v-20.581H94.894c-14.177,0-25.711-11.534-25.711-25.711c0-11.555,7.662-21.351,18.172-24.581   v27.929h30.605l0.118-82.493c0,0,4.177,1.596,6.352,2.199v25.01h30v-25.01c38.599-10.711,59.248-62.426,59.248-111.401   c0-2.235-0.112-4.452-0.308-6.652c12.515-4.578,24.763-6.24,43.089-6.24c76.703,0,139.105,62.402,139.105,139.105v64.667h30   v-27.115c10.509,3.23,18.172,13.026,18.172,24.581C443.737,311.7,432.203,323.234,418.026,323.234z"/>
</g>















</svg>
