<?xml version="1.0" encoding="iso-8859-1"?>
<!-- Generator: Adobe Illustrator 21.0.0, SVG Export Plug-In . SVG Version: 6.00 Build 0)  -->
<svg xmlns="http://www.w3.org/2000/svg" xmlns:xlink="http://www.w3.org/1999/xlink" version="1.1" id="Capa_1" x="0px" y="0px" viewBox="0 0 513 513" style="enable-background:new 0 0 513 513;" xml:space="preserve" width="512" height="512"  fill="#37287b">
<g id="XMLID_903_">
	<path id="XMLID_906_" d="M271.683,390.653c-7.249,0-13.146-5.897-13.146-13.146h-30c0,23.791,19.355,43.146,43.146,43.146   c23.79,0,43.146-19.355,43.146-43.146h-30C284.828,384.756,278.931,390.653,271.683,390.653z"/>
	<path id="XMLID_934_" d="M336.479,237.408c-24.24,0.664-43.962,21.225-43.962,45.832v21.104c0,5.605-4.56,10.165-10.164,10.165   h-10.67v30h10.67c22.146,0,40.164-18.018,40.164-40.165V283.24c0-8.513,6.632-15.62,14.784-15.844   c4.177-0.1,8.081,1.415,11.051,4.304c2.972,2.892,4.608,6.767,4.608,10.911h30c0-12.313-4.861-23.825-13.688-32.413   C360.447,241.612,348.824,237.074,336.479,237.408z"/>
	<path id="XMLID_935_" d="M205.38,237.391c-24.8,0-44.976,20.176-44.976,44.976h30c0-8.258,6.718-14.976,14.976-14.976   s14.977,6.718,14.977,14.976h30C250.356,257.566,230.18,237.391,205.38,237.391z"/>
	<path id="XMLID_938_" d="M439.742,242.399v-6.93c0-93.245-75.86-169.105-169.105-169.105h-0.349c-0.121,0-0.241,0-0.362,0   c-6.64,0-14.787,0.013-22.566,0.553C228.637,27.4,188.366,0,141.812,0C77.449,0,25.086,52.363,25.086,116.726   c0,50.231,31.895,93.152,76.496,109.578l-0.05,16.096c-27.168,3.69-48.172,27.04-48.172,55.203   c0,28.244,21.125,51.646,48.405,55.234C106.43,441.941,180.391,513,270.637,513s164.207-71.059,168.872-160.163   c27.28-3.588,48.405-26.99,48.405-55.234C487.914,269.439,466.91,246.09,439.742,242.399z M55.086,116.726   C55.086,68.905,93.991,30,141.812,30s86.725,38.905,86.725,86.726s-38.904,86.725-86.725,86.725S55.086,164.546,55.086,116.726z    M432.203,323.313h-22.461v20.581C409.742,420.598,347.34,483,270.637,483s-139.105-62.402-139.105-139.105v-20.581H109.07   c-14.177,0-25.711-11.534-25.711-25.711c0-11.554,7.662-21.351,18.172-24.581v27.929h30c0,0-0.012-67.11-0.028-67.96   c3.398,0.299,6.834,0.46,10.308,0.46c64.362,0,116.725-52.362,116.725-116.725c0-6.902-0.606-13.664-1.761-20.24   c4.706-0.134,9.446-0.134,13.512-0.121h0.35c76.703,0,139.105,62.402,139.105,139.105v64.667h30v-27.115   c10.509,3.23,18.172,13.027,18.172,24.581C457.914,311.779,446.38,323.313,432.203,323.313z"/>
	<polygon id="XMLID_1345_" points="156.812,165.785 156.812,132.976 189.62,132.976 189.62,102.976 156.812,102.976 156.812,70.167    126.812,70.167 126.812,102.976 94.002,102.976 94.002,132.976 126.812,132.976 126.812,165.785  "/>
</g>















</svg>
